<?xml version="1.0" encoding="UTF-8" standalone="no"?>
<!DOCTYPE svg PUBLIC "-//W3C//DTD SVG 1.1//EN"
 "http://www.w3.org/Graphics/SVG/1.1/DTD/svg11.dtd">
<!-- Generated by graphviz version 2.43.0 (0)
 -->
<!-- Title: %3 Pages: 1 -->
<svg width="1357pt" height="476pt"
 viewBox="0.00 0.00 1357.07 476.00" xmlns="http://www.w3.org/2000/svg" xmlns:xlink="http://www.w3.org/1999/xlink">
<g id="graph0" class="graph" transform="scale(1 1) rotate(0) translate(4 472)">
<title>%3</title>
<polygon fill="white" stroke="transparent" points="-4,4 -4,-472 1353.07,-472 1353.07,4 -4,4"/>
<!-- [root] azurerm_app_service.webapp (expand) -->
<g id="node1" class="node">
<title>[root] azurerm_app_service.webapp (expand)</title>
<polygon fill="none" stroke="black" points="703.29,-252 476.29,-252 476.29,-216 703.29,-216 703.29,-252"/>
<text text-anchor="middle" x="589.79" y="-230.3" font-family="Times,serif" font-size="14.00">azurerm_app_service.webapp</text>
</g>
<!-- [root] azurerm_app_service_plan.app_plan (expand) -->
<g id="node2" class="node">
<title>[root] azurerm_app_service_plan.app_plan (expand)</title>
<polygon fill="none" stroke="black" points="485.29,-180 212.29,-180 212.29,-144 485.29,-144 485.29,-180"/>
<text text-anchor="middle" x="348.79" y="-158.3" font-family="Times,serif" font-size="14.00">azurerm_app_service_plan.app_plan</text>
</g>
<!-- [root] azurerm_app_service.webapp (expand)&#45;&gt;[root] azurerm_app_service_plan.app_plan (expand) -->
<g id="edge1" class="edge">
<title>[root] azurerm_app_service.webapp (expand)&#45;&gt;[root] azurerm_app_service_plan.app_plan (expand)</title>
<path fill="none" stroke="black" d="M531.15,-215.97C496.89,-206.01 453.48,-193.41 417.61,-182.99"/>
<polygon fill="black" stroke="black" points="418.28,-179.54 407.7,-180.11 416.33,-186.26 418.28,-179.54"/>
</g>
<!-- [root] var.app_service_name -->
<g id="node9" class="node">
<title>[root] var.app_service_name</title>
<polygon fill="none" stroke="black" points="670.29,-180 503.29,-180 503.29,-144 676.29,-144 676.29,-174 670.29,-180"/>
<polyline fill="none" stroke="black" points="670.29,-180 670.29,-174 "/>
<polyline fill="none" stroke="black" points="676.29,-174 670.29,-174 "/>
<text text-anchor="middle" x="589.79" y="-158.3" font-family="Times,serif" font-size="14.00">var.app_service_name</text>
</g>
<!-- [root] azurerm_app_service.webapp (expand)&#45;&gt;[root] var.app_service_name -->
<g id="edge2" class="edge">
<title>[root] azurerm_app_service.webapp (expand)&#45;&gt;[root] var.app_service_name</title>
<path fill="none" stroke="black" d="M589.79,-215.7C589.79,-207.98 589.79,-198.71 589.79,-190.11"/>
<polygon fill="black" stroke="black" points="593.29,-190.1 589.79,-180.1 586.29,-190.1 593.29,-190.1"/>
</g>
<!-- [root] azurerm_resource_group.rg (expand) -->
<g id="node3" class="node">
<title>[root] azurerm_resource_group.rg (expand)</title>
<polygon fill="none" stroke="black" points="943.29,-108 728.29,-108 728.29,-72 943.29,-72 943.29,-108"/>
<text text-anchor="middle" x="835.79" y="-86.3" font-family="Times,serif" font-size="14.00">azurerm_resource_group.rg</text>
</g>
<!-- [root] azurerm_app_service_plan.app_plan (expand)&#45;&gt;[root] azurerm_resource_group.rg (expand) -->
<g id="edge3" class="edge">
<title>[root] azurerm_app_service_plan.app_plan (expand)&#45;&gt;[root] azurerm_resource_group.rg (expand)</title>
<path fill="none" stroke="black" d="M467.31,-143.97C543.43,-133.02 641.9,-118.87 717.9,-107.95"/>
<polygon fill="black" stroke="black" points="718.6,-111.38 728,-106.49 717.6,-104.45 718.6,-111.38"/>
</g>
<!-- [root] var.app_service_plan_name -->
<g id="node10" class="node">
<title>[root] var.app_service_plan_name</title>
<polygon fill="none" stroke="black" points="447.79,-108 243.79,-108 243.79,-72 453.79,-72 453.79,-102 447.79,-108"/>
<polyline fill="none" stroke="black" points="447.79,-108 447.79,-102 "/>
<polyline fill="none" stroke="black" points="453.79,-102 447.79,-102 "/>
<text text-anchor="middle" x="348.79" y="-86.3" font-family="Times,serif" font-size="14.00">var.app_service_plan_name</text>
</g>
<!-- [root] azurerm_app_service_plan.app_plan (expand)&#45;&gt;[root] var.app_service_plan_name -->
<g id="edge4" class="edge">
<title>[root] azurerm_app_service_plan.app_plan (expand)&#45;&gt;[root] var.app_service_plan_name</title>
<path fill="none" stroke="black" d="M348.79,-143.7C348.79,-135.98 348.79,-126.71 348.79,-118.11"/>
<polygon fill="black" stroke="black" points="352.29,-118.1 348.79,-108.1 345.29,-118.1 352.29,-118.1"/>
</g>
<!-- [root] provider[&quot;registry.terraform.io/hashicorp/azurerm&quot;] -->
<g id="node8" class="node">
<title>[root] provider[&quot;registry.terraform.io/hashicorp/azurerm&quot;]</title>
<polygon fill="none" stroke="black" points="354.79,-36 0.21,-18 354.79,0 709.38,-18 354.79,-36"/>
<text text-anchor="middle" x="354.79" y="-14.3" font-family="Times,serif" font-size="14.00">provider[&quot;registry.terraform.io/hashicorp/azurerm&quot;]</text>
</g>
<!-- [root] azurerm_resource_group.rg (expand)&#45;&gt;[root] provider[&quot;registry.terraform.io/hashicorp/azurerm&quot;] -->
<g id="edge5" class="edge">
<title>[root] azurerm_resource_group.rg (expand)&#45;&gt;[root] provider[&quot;registry.terraform.io/hashicorp/azurerm&quot;]</title>
<path fill="none" stroke="black" d="M728.15,-73.33C645.29,-61.28 531.77,-44.76 451.73,-33.11"/>
<polygon fill="black" stroke="black" points="452.04,-29.62 441.64,-31.64 451.04,-36.54 452.04,-29.62"/>
</g>
<!-- [root] var.resource_group_location -->
<g id="node11" class="node">
<title>[root] var.resource_group_location</title>
<polygon fill="none" stroke="black" points="938.29,-36 727.29,-36 727.29,0 944.29,0 944.29,-30 938.29,-36"/>
<polyline fill="none" stroke="black" points="938.29,-36 938.29,-30 "/>
<polyline fill="none" stroke="black" points="944.29,-30 938.29,-30 "/>
<text text-anchor="middle" x="835.79" y="-14.3" font-family="Times,serif" font-size="14.00">var.resource_group_location</text>
</g>
<!-- [root] azurerm_resource_group.rg (expand)&#45;&gt;[root] var.resource_group_location -->
<g id="edge6" class="edge">
<title>[root] azurerm_resource_group.rg (expand)&#45;&gt;[root] var.resource_group_location</title>
<path fill="none" stroke="black" d="M835.79,-71.7C835.79,-63.98 835.79,-54.71 835.79,-46.11"/>
<polygon fill="black" stroke="black" points="839.29,-46.1 835.79,-36.1 832.29,-46.1 839.29,-46.1"/>
</g>
<!-- [root] var.resource_group_name -->
<g id="node12" class="node">
<title>[root] var.resource_group_name</title>
<polygon fill="none" stroke="black" points="1156.79,-36 962.79,-36 962.79,0 1162.79,0 1162.79,-30 1156.79,-36"/>
<polyline fill="none" stroke="black" points="1156.79,-36 1156.79,-30 "/>
<polyline fill="none" stroke="black" points="1162.79,-30 1156.79,-30 "/>
<text text-anchor="middle" x="1062.79" y="-14.3" font-family="Times,serif" font-size="14.00">var.resource_group_name</text>
</g>
<!-- [root] azurerm_resource_group.rg (expand)&#45;&gt;[root] var.resource_group_name -->
<g id="edge7" class="edge">
<title>[root] azurerm_resource_group.rg (expand)&#45;&gt;[root] var.resource_group_name</title>
<path fill="none" stroke="black" d="M891.03,-71.97C923.17,-62.06 963.84,-49.51 997.55,-39.12"/>
<polygon fill="black" stroke="black" points="998.78,-42.4 1007.31,-36.11 996.72,-35.71 998.78,-42.4"/>
</g>
<!-- [root] azurerm_sql_database.db (expand) -->
<g id="node4" class="node">
<title>[root] azurerm_sql_database.db (expand)</title>
<polygon fill="none" stroke="black" points="1007.79,-324 809.79,-324 809.79,-288 1007.79,-288 1007.79,-324"/>
<text text-anchor="middle" x="908.79" y="-302.3" font-family="Times,serif" font-size="14.00">azurerm_sql_database.db</text>
</g>
<!-- [root] azurerm_sql_server.sqldb (expand) -->
<g id="node5" class="node">
<title>[root] azurerm_sql_server.sqldb (expand)</title>
<polygon fill="none" stroke="black" points="1083.29,-252 884.29,-252 884.29,-216 1083.29,-216 1083.29,-252"/>
<text text-anchor="middle" x="983.79" y="-230.3" font-family="Times,serif" font-size="14.00">azurerm_sql_server.sqldb</text>
</g>
<!-- [root] azurerm_sql_database.db (expand)&#45;&gt;[root] azurerm_sql_server.sqldb (expand) -->
<g id="edge8" class="edge">
<title>[root] azurerm_sql_database.db (expand)&#45;&gt;[root] azurerm_sql_server.sqldb (expand)</title>
<path fill="none" stroke="black" d="M927.33,-287.7C936.6,-279.05 947.96,-268.45 958.05,-259.03"/>
<polygon fill="black" stroke="black" points="960.55,-261.49 965.47,-252.1 955.77,-256.37 960.55,-261.49"/>
</g>
<!-- [root] azurerm_sql_server.sqldb (expand)&#45;&gt;[root] azurerm_resource_group.rg (expand) -->
<g id="edge9" class="edge">
<title>[root] azurerm_sql_server.sqldb (expand)&#45;&gt;[root] azurerm_resource_group.rg (expand)</title>
<path fill="none" stroke="black" d="M1032.35,-215.97C1048.46,-207.73 1064.62,-196.06 1073.79,-180 1081.73,-166.11 1083.8,-156.48 1073.79,-144 1058,-124.3 1005.23,-111.45 953.38,-103.34"/>
<polygon fill="black" stroke="black" points="953.79,-99.87 943.38,-101.84 952.75,-106.79 953.79,-99.87"/>
</g>
<!-- [root] var.sql_admin_login -->
<g id="node13" class="node">
<title>[root] var.sql_admin_login</title>
<polygon fill="none" stroke="black" points="1272.29,-180 1121.29,-180 1121.29,-144 1278.29,-144 1278.29,-174 1272.29,-180"/>
<polyline fill="none" stroke="black" points="1272.29,-180 1272.29,-174 "/>
<polyline fill="none" stroke="black" points="1278.29,-174 1272.29,-174 "/>
<text text-anchor="middle" x="1199.79" y="-158.3" font-family="Times,serif" font-size="14.00">var.sql_admin_login</text>
</g>
<!-- [root] azurerm_sql_server.sqldb (expand)&#45;&gt;[root] var.sql_admin_login -->
<g id="edge10" class="edge">
<title>[root] azurerm_sql_server.sqldb (expand)&#45;&gt;[root] var.sql_admin_login</title>
<path fill="none" stroke="black" d="M1036.36,-215.97C1066.8,-206.1 1105.31,-193.62 1137.29,-183.25"/>
<polygon fill="black" stroke="black" points="1138.56,-186.52 1147,-180.11 1136.4,-179.86 1138.56,-186.52"/>
</g>
<!-- [root] var.sql_admin_password -->
<g id="node14" class="node">
<title>[root] var.sql_admin_password</title>
<polygon fill="none" stroke="black" points="878.79,-180 694.79,-180 694.79,-144 884.79,-144 884.79,-174 878.79,-180"/>
<polyline fill="none" stroke="black" points="878.79,-180 878.79,-174 "/>
<polyline fill="none" stroke="black" points="884.79,-174 878.79,-174 "/>
<text text-anchor="middle" x="789.79" y="-158.3" font-family="Times,serif" font-size="14.00">var.sql_admin_password</text>
</g>
<!-- [root] azurerm_sql_server.sqldb (expand)&#45;&gt;[root] var.sql_admin_password -->
<g id="edge11" class="edge">
<title>[root] azurerm_sql_server.sqldb (expand)&#45;&gt;[root] var.sql_admin_password</title>
<path fill="none" stroke="black" d="M936.34,-215.88C909.23,-206.09 875.06,-193.77 846.54,-183.47"/>
<polygon fill="black" stroke="black" points="847.69,-180.17 837.1,-180.07 845.32,-186.75 847.69,-180.17"/>
</g>
<!-- [root] var.sql_server_name -->
<g id="node16" class="node">
<title>[root] var.sql_server_name</title>
<polygon fill="none" stroke="black" points="1058.79,-180 902.79,-180 902.79,-144 1064.79,-144 1064.79,-174 1058.79,-180"/>
<polyline fill="none" stroke="black" points="1058.79,-180 1058.79,-174 "/>
<polyline fill="none" stroke="black" points="1064.79,-174 1058.79,-174 "/>
<text text-anchor="middle" x="983.79" y="-158.3" font-family="Times,serif" font-size="14.00">var.sql_server_name</text>
</g>
<!-- [root] azurerm_sql_server.sqldb (expand)&#45;&gt;[root] var.sql_server_name -->
<g id="edge12" class="edge">
<title>[root] azurerm_sql_server.sqldb (expand)&#45;&gt;[root] var.sql_server_name</title>
<path fill="none" stroke="black" d="M983.79,-215.7C983.79,-207.98 983.79,-198.71 983.79,-190.11"/>
<polygon fill="black" stroke="black" points="987.29,-190.1 983.79,-180.1 980.29,-190.1 987.29,-190.1"/>
</g>
<!-- [root] output.webapp_ips -->
<g id="node6" class="node">
<title>[root] output.webapp_ips</title>
<polygon fill="none" stroke="black" points="366.79,-324 220.79,-324 220.79,-288 372.79,-288 372.79,-318 366.79,-324"/>
<polyline fill="none" stroke="black" points="366.79,-324 366.79,-318 "/>
<polyline fill="none" stroke="black" points="372.79,-318 366.79,-318 "/>
<text text-anchor="middle" x="296.79" y="-302.3" font-family="Times,serif" font-size="14.00">output.webapp_ips</text>
</g>
<!-- [root] output.webapp_ips&#45;&gt;[root] azurerm_app_service.webapp (expand) -->
<g id="edge17" class="edge">
<title>[root] output.webapp_ips&#45;&gt;[root] azurerm_app_service.webapp (expand)</title>
<path fill="none" stroke="black" d="M368.1,-287.97C410.54,-277.83 464.53,-264.93 508.61,-254.4"/>
<polygon fill="black" stroke="black" points="509.52,-257.78 518.43,-252.05 507.89,-250.97 509.52,-257.78"/>
</g>
<!-- [root] output.webapp_url -->
<g id="node7" class="node">
<title>[root] output.webapp_url</title>
<polygon fill="none" stroke="black" points="735.29,-324 590.29,-324 590.29,-288 741.29,-288 741.29,-318 735.29,-324"/>
<polyline fill="none" stroke="black" points="735.29,-324 735.29,-318 "/>
<polyline fill="none" stroke="black" points="741.29,-318 735.29,-318 "/>
<text text-anchor="middle" x="665.79" y="-302.3" font-family="Times,serif" font-size="14.00">output.webapp_url</text>
</g>
<!-- [root] output.webapp_url&#45;&gt;[root] azurerm_app_service.webapp (expand) -->
<g id="edge18" class="edge">
<title>[root] output.webapp_url&#45;&gt;[root] azurerm_app_service.webapp (expand)</title>
<path fill="none" stroke="black" d="M647.01,-287.7C637.62,-279.05 626.11,-268.45 615.88,-259.03"/>
<polygon fill="black" stroke="black" points="618.09,-256.3 608.37,-252.1 613.35,-261.45 618.09,-256.3"/>
</g>
<!-- [root] var.sql_database_name -->
<g id="node15" class="node">
<title>[root] var.sql_database_name</title>
<polygon fill="none" stroke="black" points="566.29,-324 391.29,-324 391.29,-288 572.29,-288 572.29,-318 566.29,-324"/>
<polyline fill="none" stroke="black" points="566.29,-324 566.29,-318 "/>
<polyline fill="none" stroke="black" points="572.29,-318 566.29,-318 "/>
<text text-anchor="middle" x="481.79" y="-302.3" font-family="Times,serif" font-size="14.00">var.sql_database_name</text>
</g>
<!-- [root] meta.count&#45;boundary (EachMode fixup) -->
<g id="node17" class="node">
<title>[root] meta.count&#45;boundary (EachMode fixup)</title>
<ellipse fill="none" stroke="black" cx="481.79" cy="-378" rx="222.86" ry="18"/>
<text text-anchor="middle" x="481.79" y="-374.3" font-family="Times,serif" font-size="14.00">[root] meta.count&#45;boundary (EachMode fixup)</text>
</g>
<!-- [root] meta.count&#45;boundary (EachMode fixup)&#45;&gt;[root] azurerm_sql_database.db (expand) -->
<g id="edge13" class="edge">
<title>[root] meta.count&#45;boundary (EachMode fixup)&#45;&gt;[root] azurerm_sql_database.db (expand)</title>
<path fill="none" stroke="black" d="M575.5,-361.64C641.6,-350.8 730.36,-336.25 799.66,-324.89"/>
<polygon fill="black" stroke="black" points="800.43,-328.31 809.73,-323.24 799.3,-321.4 800.43,-328.31"/>
</g>
<!-- [root] meta.count&#45;boundary (EachMode fixup)&#45;&gt;[root] output.webapp_ips -->
<g id="edge14" class="edge">
<title>[root] meta.count&#45;boundary (EachMode fixup)&#45;&gt;[root] output.webapp_ips</title>
<path fill="none" stroke="black" d="M437.48,-360.23C411.66,-350.46 378.9,-338.07 351.48,-327.69"/>
<polygon fill="black" stroke="black" points="352.62,-324.38 342.03,-324.12 350.14,-330.93 352.62,-324.38"/>
</g>
<!-- [root] meta.count&#45;boundary (EachMode fixup)&#45;&gt;[root] output.webapp_url -->
<g id="edge15" class="edge">
<title>[root] meta.count&#45;boundary (EachMode fixup)&#45;&gt;[root] output.webapp_url</title>
<path fill="none" stroke="black" d="M525.87,-360.23C551.55,-350.46 584.13,-338.07 611.4,-327.69"/>
<polygon fill="black" stroke="black" points="612.7,-330.94 620.8,-324.12 610.21,-324.4 612.7,-330.94"/>
</g>
<!-- [root] meta.count&#45;boundary (EachMode fixup)&#45;&gt;[root] var.sql_database_name -->
<g id="edge16" class="edge">
<title>[root] meta.count&#45;boundary (EachMode fixup)&#45;&gt;[root] var.sql_database_name</title>
<path fill="none" stroke="black" d="M481.79,-359.7C481.79,-351.98 481.79,-342.71 481.79,-334.11"/>
<polygon fill="black" stroke="black" points="485.29,-334.1 481.79,-324.1 478.29,-334.1 485.29,-334.1"/>
</g>
<!-- [root] provider[&quot;registry.terraform.io/hashicorp/azurerm&quot;] (close) -->
<g id="node18" class="node">
<title>[root] provider[&quot;registry.terraform.io/hashicorp/azurerm&quot;] (close)</title>
<ellipse fill="none" stroke="black" cx="1035.79" cy="-378" rx="313.04" ry="18"/>
<text text-anchor="middle" x="1035.79" y="-374.3" font-family="Times,serif" font-size="14.00">[root] provider[&quot;registry.terraform.io/hashicorp/azurerm&quot;] (close)</text>
</g>
<!-- [root] provider[&quot;registry.terraform.io/hashicorp/azurerm&quot;] (close)&#45;&gt;[root] azurerm_app_service.webapp (expand) -->
<g id="edge19" class="edge">
<title>[root] provider[&quot;registry.terraform.io/hashicorp/azurerm&quot;] (close)&#45;&gt;[root] azurerm_app_service.webapp (expand)</title>
<path fill="none" stroke="black" d="M1037.51,-359.76C1038.48,-339.44 1036.59,-306.15 1016.79,-288 994.64,-267.69 831.59,-251.97 713.55,-243.1"/>
<polygon fill="black" stroke="black" points="713.58,-239.59 703.35,-242.34 713.06,-246.57 713.58,-239.59"/>
</g>
<!-- [root] provider[&quot;registry.terraform.io/hashicorp/azurerm&quot;] (close)&#45;&gt;[root] azurerm_sql_database.db (expand) -->
<g id="edge20" class="edge">
<title>[root] provider[&quot;registry.terraform.io/hashicorp/azurerm&quot;] (close)&#45;&gt;[root] azurerm_sql_database.db (expand)</title>
<path fill="none" stroke="black" d="M1005.05,-360.05C988.17,-350.75 967.04,-339.11 948.88,-329.1"/>
<polygon fill="black" stroke="black" points="950.14,-325.79 939.69,-324.03 946.76,-331.92 950.14,-325.79"/>
</g>
<!-- [root] root -->
<g id="node19" class="node">
<title>[root] root</title>
<ellipse fill="none" stroke="black" cx="758.79" cy="-450" rx="58.49" ry="18"/>
<text text-anchor="middle" x="758.79" y="-446.3" font-family="Times,serif" font-size="14.00">[root] root</text>
</g>
<!-- [root] root&#45;&gt;[root] meta.count&#45;boundary (EachMode fixup) -->
<g id="edge21" class="edge">
<title>[root] root&#45;&gt;[root] meta.count&#45;boundary (EachMode fixup)</title>
<path fill="none" stroke="black" d="M715.21,-437.99C672.64,-427.23 607.03,-410.65 556.2,-397.8"/>
<polygon fill="black" stroke="black" points="556.8,-394.34 546.24,-395.29 555.08,-401.13 556.8,-394.34"/>
</g>
<!-- [root] root&#45;&gt;[root] provider[&quot;registry.terraform.io/hashicorp/azurerm&quot;] (close) -->
<g id="edge22" class="edge">
<title>[root] root&#45;&gt;[root] provider[&quot;registry.terraform.io/hashicorp/azurerm&quot;] (close)</title>
<path fill="none" stroke="black" d="M802.38,-437.99C844.59,-427.32 909.46,-410.93 960.11,-398.13"/>
<polygon fill="black" stroke="black" points="961.2,-401.46 970.03,-395.62 959.48,-394.67 961.2,-401.46"/>
</g>
</g>
</svg>
